<mxfile host="app.diagrams.net" modified="2022-07-26T00:13:04.854Z" agent="5.0 (X11; Linux x86_64) AppleWebKit/537.36 (KHTML, like Gecko) Chrome/103.0.0.0 Safari/537.36" etag="utQpnazRTdu2f-VBJTUk" version="20.2.0" type="github">
  <diagram id="R2lEEEUBdFMjLlhIrx00" name="Page-1">
    <mxGraphModel dx="1823" dy="766" grid="1" gridSize="10" guides="1" tooltips="1" connect="1" arrows="1" fold="1" page="1" pageScale="1" pageWidth="850" pageHeight="1100" math="0" shadow="0" extFonts="Permanent Marker^https://fonts.googleapis.com/css?family=Permanent+Marker">
      <root>
        <mxCell id="0" />
        <mxCell id="1" parent="0" />
        <mxCell id="viCMVrCXkihIOLoWAZFG-1" value="Libro" style="rounded=0;whiteSpace=wrap;html=1;" vertex="1" parent="1">
          <mxGeometry x="180" y="250" width="120" height="60" as="geometry" />
        </mxCell>
        <mxCell id="viCMVrCXkihIOLoWAZFG-2" value="titulo" style="ellipse;whiteSpace=wrap;html=1;" vertex="1" parent="1">
          <mxGeometry x="-10" y="240" width="100" height="60" as="geometry" />
        </mxCell>
        <mxCell id="viCMVrCXkihIOLoWAZFG-3" value="isbn" style="ellipse;whiteSpace=wrap;html=1;fillColor=#FFFF33;" vertex="1" parent="1">
          <mxGeometry x="50" y="180" width="100" height="60" as="geometry" />
        </mxCell>
        <mxCell id="viCMVrCXkihIOLoWAZFG-4" value="aÃ±o_pub" style="ellipse;whiteSpace=wrap;html=1;" vertex="1" parent="1">
          <mxGeometry x="-40" y="300" width="100" height="60" as="geometry" />
        </mxCell>
        <mxCell id="viCMVrCXkihIOLoWAZFG-5" value="" style="endArrow=none;html=1;rounded=0;exitX=0;exitY=0.5;exitDx=0;exitDy=0;entryX=1;entryY=0.5;entryDx=0;entryDy=0;" edge="1" parent="1" source="viCMVrCXkihIOLoWAZFG-1" target="viCMVrCXkihIOLoWAZFG-4">
          <mxGeometry width="50" height="50" relative="1" as="geometry">
            <mxPoint x="370" y="420" as="sourcePoint" />
            <mxPoint x="420" y="370" as="targetPoint" />
          </mxGeometry>
        </mxCell>
        <mxCell id="viCMVrCXkihIOLoWAZFG-6" value="" style="endArrow=none;html=1;rounded=0;exitX=0;exitY=0.5;exitDx=0;exitDy=0;" edge="1" parent="1" source="viCMVrCXkihIOLoWAZFG-1" target="viCMVrCXkihIOLoWAZFG-2">
          <mxGeometry width="50" height="50" relative="1" as="geometry">
            <mxPoint x="370" y="420" as="sourcePoint" />
            <mxPoint x="420" y="370" as="targetPoint" />
          </mxGeometry>
        </mxCell>
        <mxCell id="viCMVrCXkihIOLoWAZFG-7" value="" style="endArrow=none;html=1;rounded=0;exitX=0;exitY=0.5;exitDx=0;exitDy=0;entryX=0.5;entryY=1;entryDx=0;entryDy=0;" edge="1" parent="1" source="viCMVrCXkihIOLoWAZFG-1" target="viCMVrCXkihIOLoWAZFG-3">
          <mxGeometry width="50" height="50" relative="1" as="geometry">
            <mxPoint x="370" y="420" as="sourcePoint" />
            <mxPoint x="420" y="370" as="targetPoint" />
          </mxGeometry>
        </mxCell>
        <mxCell id="viCMVrCXkihIOLoWAZFG-9" value="Stock" style="rounded=0;whiteSpace=wrap;html=1;" vertex="1" parent="1">
          <mxGeometry x="180" y="560" width="120" height="60" as="geometry" />
        </mxCell>
        <mxCell id="viCMVrCXkihIOLoWAZFG-10" value="titulo" style="ellipse;whiteSpace=wrap;html=1;fillColor=#FFFF33;" vertex="1" parent="1">
          <mxGeometry x="30" y="520" width="100" height="60" as="geometry" />
        </mxCell>
        <mxCell id="viCMVrCXkihIOLoWAZFG-11" value="cant_existente" style="ellipse;whiteSpace=wrap;html=1;" vertex="1" parent="1">
          <mxGeometry x="10" y="600" width="100" height="60" as="geometry" />
        </mxCell>
        <mxCell id="viCMVrCXkihIOLoWAZFG-12" value="" style="endArrow=none;html=1;rounded=0;exitX=0;exitY=0.5;exitDx=0;exitDy=0;entryX=1;entryY=0.5;entryDx=0;entryDy=0;" edge="1" parent="1" source="viCMVrCXkihIOLoWAZFG-9" target="viCMVrCXkihIOLoWAZFG-10">
          <mxGeometry width="50" height="50" relative="1" as="geometry">
            <mxPoint x="310" y="500" as="sourcePoint" />
            <mxPoint x="360" y="450" as="targetPoint" />
          </mxGeometry>
        </mxCell>
        <mxCell id="viCMVrCXkihIOLoWAZFG-13" value="" style="endArrow=none;html=1;rounded=0;exitX=0;exitY=0.5;exitDx=0;exitDy=0;entryX=1;entryY=0.5;entryDx=0;entryDy=0;" edge="1" parent="1" source="viCMVrCXkihIOLoWAZFG-9" target="viCMVrCXkihIOLoWAZFG-11">
          <mxGeometry width="50" height="50" relative="1" as="geometry">
            <mxPoint x="310" y="600" as="sourcePoint" />
            <mxPoint x="350" y="560" as="targetPoint" />
          </mxGeometry>
        </mxCell>
        <mxCell id="viCMVrCXkihIOLoWAZFG-14" value="1" style="text;html=1;align=center;verticalAlign=middle;resizable=0;points=[];autosize=1;strokeColor=none;fillColor=none;" vertex="1" parent="1">
          <mxGeometry x="205" y="305" width="30" height="30" as="geometry" />
        </mxCell>
        <mxCell id="viCMVrCXkihIOLoWAZFG-15" value="1" style="text;html=1;align=center;verticalAlign=middle;resizable=0;points=[];autosize=1;strokeColor=none;fillColor=none;" vertex="1" parent="1">
          <mxGeometry x="205" y="535" width="30" height="30" as="geometry" />
        </mxCell>
        <mxCell id="viCMVrCXkihIOLoWAZFG-16" value="1" style="text;html=1;align=center;verticalAlign=middle;resizable=0;points=[];autosize=1;strokeColor=none;fillColor=none;" vertex="1" parent="1">
          <mxGeometry x="245" y="535" width="30" height="30" as="geometry" />
        </mxCell>
        <mxCell id="viCMVrCXkihIOLoWAZFG-17" value="N" style="text;html=1;align=center;verticalAlign=middle;resizable=0;points=[];autosize=1;strokeColor=none;fillColor=none;" vertex="1" parent="1">
          <mxGeometry x="245" y="305" width="30" height="30" as="geometry" />
        </mxCell>
        <mxCell id="viCMVrCXkihIOLoWAZFG-19" value="1:N" style="rhombus;whiteSpace=wrap;html=1;fillColor=#FFFFFF;" vertex="1" parent="1">
          <mxGeometry x="200" y="400" width="80" height="80" as="geometry" />
        </mxCell>
        <mxCell id="viCMVrCXkihIOLoWAZFG-20" value="" style="endArrow=none;html=1;rounded=0;exitX=0.5;exitY=1;exitDx=0;exitDy=0;" edge="1" parent="1" source="viCMVrCXkihIOLoWAZFG-19" target="viCMVrCXkihIOLoWAZFG-9">
          <mxGeometry width="50" height="50" relative="1" as="geometry">
            <mxPoint x="370" y="420" as="sourcePoint" />
            <mxPoint x="420" y="370" as="targetPoint" />
          </mxGeometry>
        </mxCell>
        <mxCell id="viCMVrCXkihIOLoWAZFG-21" value="" style="endArrow=none;html=1;rounded=0;exitX=0.5;exitY=0;exitDx=0;exitDy=0;" edge="1" parent="1" source="viCMVrCXkihIOLoWAZFG-19" target="viCMVrCXkihIOLoWAZFG-1">
          <mxGeometry width="50" height="50" relative="1" as="geometry">
            <mxPoint x="370" y="420" as="sourcePoint" />
            <mxPoint x="420" y="370" as="targetPoint" />
          </mxGeometry>
        </mxCell>
        <mxCell id="viCMVrCXkihIOLoWAZFG-22" value="titulo2" style="ellipse;whiteSpace=wrap;html=1;fillColor=#FFFF33;gradientColor=#FFFFFF;gradientDirection=east;" vertex="1" parent="1">
          <mxGeometry x="-10" y="360" width="100" height="60" as="geometry" />
        </mxCell>
        <mxCell id="viCMVrCXkihIOLoWAZFG-23" value="" style="endArrow=none;html=1;rounded=0;exitX=0;exitY=0.5;exitDx=0;exitDy=0;entryX=1;entryY=0.5;entryDx=0;entryDy=0;" edge="1" parent="1" source="viCMVrCXkihIOLoWAZFG-1" target="viCMVrCXkihIOLoWAZFG-22">
          <mxGeometry width="50" height="50" relative="1" as="geometry">
            <mxPoint x="370" y="420" as="sourcePoint" />
            <mxPoint x="420" y="370" as="targetPoint" />
          </mxGeometry>
        </mxCell>
        <mxCell id="viCMVrCXkihIOLoWAZFG-24" value="Venta" style="rounded=0;whiteSpace=wrap;html=1;fillColor=#FFFFFF;gradientColor=none;gradientDirection=east;" vertex="1" parent="1">
          <mxGeometry x="510" y="250" width="120" height="60" as="geometry" />
        </mxCell>
        <mxCell id="viCMVrCXkihIOLoWAZFG-25" value="fecha_hora" style="ellipse;whiteSpace=wrap;html=1;fillColor=#FFFF33;" vertex="1" parent="1">
          <mxGeometry x="680" y="160" width="100" height="60" as="geometry" />
        </mxCell>
        <mxCell id="viCMVrCXkihIOLoWAZFG-26" value="libro_vendido" style="ellipse;whiteSpace=wrap;html=1;" vertex="1" parent="1">
          <mxGeometry x="690" y="245" width="100" height="60" as="geometry" />
        </mxCell>
        <mxCell id="viCMVrCXkihIOLoWAZFG-27" value="num_unidades_vendidas" style="ellipse;whiteSpace=wrap;html=1;" vertex="1" parent="1">
          <mxGeometry x="660" y="330" width="160" height="60" as="geometry" />
        </mxCell>
        <mxCell id="viCMVrCXkihIOLoWAZFG-28" value="" style="endArrow=none;html=1;rounded=0;exitX=1;exitY=0.5;exitDx=0;exitDy=0;entryX=0;entryY=0.5;entryDx=0;entryDy=0;" edge="1" parent="1" source="viCMVrCXkihIOLoWAZFG-24" target="viCMVrCXkihIOLoWAZFG-27">
          <mxGeometry width="50" height="50" relative="1" as="geometry">
            <mxPoint x="450" y="360" as="sourcePoint" />
            <mxPoint x="500" y="310" as="targetPoint" />
          </mxGeometry>
        </mxCell>
        <mxCell id="viCMVrCXkihIOLoWAZFG-29" value="" style="endArrow=none;html=1;rounded=0;entryX=1;entryY=0.5;entryDx=0;entryDy=0;exitX=0;exitY=0.5;exitDx=0;exitDy=0;" edge="1" parent="1" source="viCMVrCXkihIOLoWAZFG-26" target="viCMVrCXkihIOLoWAZFG-24">
          <mxGeometry width="50" height="50" relative="1" as="geometry">
            <mxPoint x="450" y="360" as="sourcePoint" />
            <mxPoint x="500" y="310" as="targetPoint" />
          </mxGeometry>
        </mxCell>
        <mxCell id="viCMVrCXkihIOLoWAZFG-30" value="" style="endArrow=none;html=1;rounded=0;exitX=1;exitY=0.5;exitDx=0;exitDy=0;entryX=0;entryY=1;entryDx=0;entryDy=0;" edge="1" parent="1" source="viCMVrCXkihIOLoWAZFG-24" target="viCMVrCXkihIOLoWAZFG-25">
          <mxGeometry width="50" height="50" relative="1" as="geometry">
            <mxPoint x="450" y="360" as="sourcePoint" />
            <mxPoint x="500" y="310" as="targetPoint" />
          </mxGeometry>
        </mxCell>
        <mxCell id="viCMVrCXkihIOLoWAZFG-31" value="" style="endArrow=none;html=1;rounded=0;" edge="1" parent="1" source="viCMVrCXkihIOLoWAZFG-24" target="viCMVrCXkihIOLoWAZFG-36">
          <mxGeometry width="50" height="50" relative="1" as="geometry">
            <mxPoint x="400" y="360" as="sourcePoint" />
            <mxPoint x="450" y="310" as="targetPoint" />
          </mxGeometry>
        </mxCell>
        <mxCell id="viCMVrCXkihIOLoWAZFG-32" value="1" style="text;html=1;align=center;verticalAlign=middle;resizable=0;points=[];autosize=1;strokeColor=none;fillColor=none;" vertex="1" parent="1">
          <mxGeometry x="295" y="250" width="30" height="30" as="geometry" />
        </mxCell>
        <mxCell id="viCMVrCXkihIOLoWAZFG-33" value="N" style="text;html=1;align=center;verticalAlign=middle;resizable=0;points=[];autosize=1;strokeColor=none;fillColor=none;" vertex="1" parent="1">
          <mxGeometry x="485" y="250" width="30" height="30" as="geometry" />
        </mxCell>
        <mxCell id="viCMVrCXkihIOLoWAZFG-34" value="1" style="text;html=1;align=center;verticalAlign=middle;resizable=0;points=[];autosize=1;strokeColor=none;fillColor=none;" vertex="1" parent="1">
          <mxGeometry x="485" y="275" width="30" height="30" as="geometry" />
        </mxCell>
        <mxCell id="viCMVrCXkihIOLoWAZFG-35" value="N" style="text;html=1;align=center;verticalAlign=middle;resizable=0;points=[];autosize=1;strokeColor=none;fillColor=none;" vertex="1" parent="1">
          <mxGeometry x="295" y="275" width="30" height="30" as="geometry" />
        </mxCell>
        <mxCell id="viCMVrCXkihIOLoWAZFG-36" value="N:M" style="rhombus;whiteSpace=wrap;html=1;fillColor=#FFFFFF;gradientColor=none;gradientDirection=east;" vertex="1" parent="1">
          <mxGeometry x="360" y="240" width="80" height="80" as="geometry" />
        </mxCell>
        <mxCell id="viCMVrCXkihIOLoWAZFG-37" value="" style="endArrow=none;html=1;rounded=0;entryX=0;entryY=0.5;entryDx=0;entryDy=0;" edge="1" parent="1" source="viCMVrCXkihIOLoWAZFG-1" target="viCMVrCXkihIOLoWAZFG-36">
          <mxGeometry width="50" height="50" relative="1" as="geometry">
            <mxPoint x="400" y="360" as="sourcePoint" />
            <mxPoint x="450" y="310" as="targetPoint" />
          </mxGeometry>
        </mxCell>
        <mxCell id="viCMVrCXkihIOLoWAZFG-38" value="isbn" style="ellipse;whiteSpace=wrap;html=1;fillColor=#FFFF33;gradientColor=#FFFFFF;gradientDirection=east;" vertex="1" parent="1">
          <mxGeometry x="320" y="140" width="100" height="60" as="geometry" />
        </mxCell>
        <mxCell id="viCMVrCXkihIOLoWAZFG-39" value="fecha_hora" style="ellipse;whiteSpace=wrap;html=1;fillColor=#FFFF33;gradientColor=#FFFFFF;gradientDirection=east;" vertex="1" parent="1">
          <mxGeometry x="425" y="140" width="100" height="60" as="geometry" />
        </mxCell>
        <mxCell id="viCMVrCXkihIOLoWAZFG-41" value="" style="endArrow=none;html=1;rounded=0;exitX=0.5;exitY=0;exitDx=0;exitDy=0;entryX=0.5;entryY=1;entryDx=0;entryDy=0;" edge="1" parent="1" source="viCMVrCXkihIOLoWAZFG-36" target="viCMVrCXkihIOLoWAZFG-38">
          <mxGeometry width="50" height="50" relative="1" as="geometry">
            <mxPoint x="390" y="360" as="sourcePoint" />
            <mxPoint x="440" y="310" as="targetPoint" />
          </mxGeometry>
        </mxCell>
        <mxCell id="viCMVrCXkihIOLoWAZFG-42" value="" style="endArrow=none;html=1;rounded=0;exitX=0.5;exitY=0;exitDx=0;exitDy=0;entryX=0.5;entryY=1;entryDx=0;entryDy=0;" edge="1" parent="1" source="viCMVrCXkihIOLoWAZFG-36" target="viCMVrCXkihIOLoWAZFG-39">
          <mxGeometry width="50" height="50" relative="1" as="geometry">
            <mxPoint x="390" y="360" as="sourcePoint" />
            <mxPoint x="440" y="310" as="targetPoint" />
          </mxGeometry>
        </mxCell>
      </root>
    </mxGraphModel>
  </diagram>
</mxfile>
